{"asset":{"version":"2.0","generator":"Blockbench 5.0.7 glTF exporter"},"scenes":[{"nodes":[0],"name":"blockbench_export"}],"scene":0,"nodes":[{"translation":[0.040625,0,0],"name":"beveled_cuboid","mesh":0}],"bufferViews":[{"buffer":0,"byteOffset":0,"byteLength":2304,"target":34962,"byteStride":12},{"buffer":0,"byteOffset":2304,"byteLength":2304,"target":34962,"byteStride":12},{"buffer":0,"byteOffset":4608,"byteLength":1536,"target":34962,"byteStride":8},{"buffer":0,"byteOffset":6144,"byteLength":552,"target":34963}],"buffers":[{"byteLength":6696,"uri":"data:application/octet-stream;base64,"}],"accessors":[{"bufferView":0,"componentType":5126,"count":192,"max":[0.3890624940395355,1.6281249523162842,0.09843750298023224],"min":[-0.4749999940395355,-0.0031250000465661287,-0.11874999850988388],"type":"VEC3"},{"bufferView":1,"componentType":5126,"count":192,"max":[0.9024394154548645,0.9002155065536499,0.9444315433502197],"min":[-0.9024394154548645,-0.9001820087432861,-0.9444315433502197],"type":"VEC3"},{"bufferView":2,"componentType":5126,"count":192,"max":[0.8259506821632385,0.7654421329498291],"min":[0,0.09488806128501892],"type":"VEC2"},{"bufferView":3,"componentType":5123,"count":276,"max":[191],"min":[0],"type":"SCALAR"}],"materials":[{"pbrMetallicRoughness":{"metallicFactor":0,"roughnessFactor":1,"baseColorTexture":{"index":0}},"alphaMode":"MASK","alphaCutoff":0.05,"doubleSided":true}],"textures":[{"sampler":0,"source":0,"name":"phone_texture - Copia.png"}],"samplers":[{"magFilter":9728,"minFilter":9728,"wrapS":33071,"wrapT":33071}],"images":[{"mimeType":"image/png","uri":"data:image/png;base64,"}],"meshes":[{"primitives":[{"mode":4,"attributes":{"POSITION":0,"NORMAL":1,"TEXCOORD_0":2},"indices":3,"material":0}]}]}