{"asset":{"version":"2.0","generator":"Blockbench 5.0.7 glTF exporter"},"scenes":[{"nodes":[8],"name":"blockbench_export"}],"scene":0,"nodes":[{"translation":[0,-0.16250000000000003,0.3125],"name":"cuboid","mesh":0},{"rotation":[0.02181488503456112,0,0,0.9997620270799091],"translation":[0,0.3765625,-0.3125],"name":"lid","children":[0]},{"translation":[0,-0.078125,0],"name":"cylinder","mesh":1},{"rotation":[-0.0190645631736407,-0.4506064898100313,0.12036893090917941,0.8843651136515176],"translation":[0.190625,0.03749999999999998,0],"name":"plane","mesh":2},{"rotation":[0,0,0.40673664307580015,0.9135454576426009],"translation":[0.125,0.5,0],"name":"bandage","children":[2,3]},{"translation":[0,-0.25,0],"name":"cuboid","mesh":3},{"translation":[0,0.09375,0],"name":"light","children":[5]},{"translation":[0,-0.0625,0],"name":"box","mesh":4},{"name":"box","children":[1,4,6,7]}],"bufferViews":[{"buffer":0,"byteOffset":0,"byteLength":672,"target":34962,"byteStride":12},{"buffer":0,"byteOffset":672,"byteLength":672,"target":34962,"byteStride":12},{"buffer":0,"byteOffset":1344,"byteLength":448,"target":34962,"byteStride":8},{"buffer":0,"byteOffset":1792,"byteLength":168,"target":34963},{"buffer":0,"byteOffset":1960,"byteLength":960,"target":34962,"byteStride":12},{"buffer":0,"byteOffset":2920,"byteLength":960,"target":34962,"byteStride":12},{"buffer":0,"byteOffset":3880,"byteLength":640,"target":34962,"byteStride":8},{"buffer":0,"byteOffset":4520,"byteLength":192,"target":34963},{"buffer":0,"byteOffset":4712,"byteLength":144,"target":34962,"byteStride":12},{"buffer":0,"byteOffset":4856,"byteLength":144,"target":34962,"byteStride":12},{"buffer":0,"byteOffset":5000,"byteLength":96,"target":34962,"byteStride":8},{"buffer":0,"byteOffset":5096,"byteLength":36,"target":34963},{"buffer":0,"byteOffset":5132,"byteLength":240,"target":34962,"byteStride":12},{"buffer":0,"byteOffset":5372,"byteLength":240,"target":34962,"byteStride":12},{"buffer":0,"byteOffset":5612,"byteLength":160,"target":34962,"byteStride":8},{"buffer":0,"byteOffset":5772,"byteLength":60,"target":34963},{"buffer":0,"byteOffset":5832,"byteLength":672,"target":34962,"byteStride":12},{"buffer":0,"byteOffset":6504,"byteLength":672,"target":34962,"byteStride":12},{"buffer":0,"byteOffset":7176,"byteLength":448,"target":34962,"byteStride":8},{"buffer":0,"byteOffset":7624,"byteLength":168,"target":34963},{"buffer":0,"byteOffset":7792,"byteLength":24},{"buffer":0,"byteOffset":7816,"byteLength":96},{"buffer":0,"byteOffset":7912,"byteLength":16},{"buffer":0,"byteOffset":7928,"byteLength":48},{"buffer":0,"byteOffset":7976,"byteLength":4},{"buffer":0,"byteOffset":7980,"byteLength":12},{"buffer":0,"byteOffset":7992,"byteLength":16},{"buffer":0,"byteOffset":8008,"byteLength":64},{"buffer":0,"byteOffset":8072,"byteLength":4},{"buffer":0,"byteOffset":8076,"byteLength":12},{"buffer":0,"byteOffset":8088,"byteLength":4},{"buffer":0,"byteOffset":8092,"byteLength":12},{"buffer":0,"byteOffset":8104,"byteLength":4},{"buffer":0,"byteOffset":8108,"byteLength":16},{"buffer":0,"byteOffset":8124,"byteLength":4},{"buffer":0,"byteOffset":8128,"byteLength":12},{"buffer":0,"byteOffset":8140,"byteLength":4},{"buffer":0,"byteOffset":8144,"byteLength":12},{"buffer":0,"byteOffset":8156,"byteLength":4},{"buffer":0,"byteOffset":8160,"byteLength":16},{"buffer":0,"byteOffset":8176,"byteLength":4},{"buffer":0,"byteOffset":8180,"byteLength":12},{"buffer":0,"byteOffset":8192,"byteLength":4},{"buffer":0,"byteOffset":8196,"byteLength":12},{"buffer":0,"byteOffset":8208,"byteLength":4},{"buffer":0,"byteOffset":8212,"byteLength":16},{"buffer":0,"byteOffset":8228,"byteLength":4},{"buffer":0,"byteOffset":8232,"byteLength":12},{"buffer":0,"byteOffset":8244,"byteLength":4},{"buffer":0,"byteOffset":8248,"byteLength":12},{"buffer":0,"byteOffset":8260,"byteLength":68},{"buffer":0,"byteOffset":8328,"byteLength":272},{"buffer":0,"byteOffset":8600,"byteLength":4},{"buffer":0,"byteOffset":8604,"byteLength":12},{"buffer":0,"byteOffset":8616,"byteLength":4},{"buffer":0,"byteOffset":8620,"byteLength":12},{"buffer":0,"byteOffset":8632,"byteLength":80},{"buffer":0,"byteOffset":8712,"byteLength":320},{"buffer":0,"byteOffset":9032,"byteLength":52},{"buffer":0,"byteOffset":9084,"byteLength":156},{"buffer":0,"byteOffset":9240,"byteLength":80},{"buffer":0,"byteOffset":9320,"byteLength":240},{"buffer":0,"byteOffset":9560,"byteLength":4},{"buffer":0,"byteOffset":9564,"byteLength":16},{"buffer":0,"byteOffset":9580,"byteLength":88},{"buffer":0,"byteOffset":9668,"byteLength":264},{"buffer":0,"byteOffset":9932,"byteLength":40},{"buffer":0,"byteOffset":9972,"byteLength":120},{"buffer":0,"byteOffset":10092,"byteLength":4},{"buffer":0,"byteOffset":10096,"byteLength":16},{"buffer":0,"byteOffset":10112,"byteLength":4},{"buffer":0,"byteOffset":10116,"byteLength":12},{"buffer":0,"byteOffset":10128,"byteLength":4},{"buffer":0,"byteOffset":10132,"byteLength":12},{"buffer":0,"byteOffset":10144,"byteLength":4},{"buffer":0,"byteOffset":10148,"byteLength":16},{"buffer":0,"byteOffset":10164,"byteLength":4},{"buffer":0,"byteOffset":10168,"byteLength":12},{"buffer":0,"byteOffset":10180,"byteLength":4},{"buffer":0,"byteOffset":10184,"byteLength":12},{"buffer":0,"byteOffset":10196,"byteLength":16},{"buffer":0,"byteOffset":10212,"byteLength":64},{"buffer":0,"byteOffset":10276,"byteLength":92},{"buffer":0,"byteOffset":10368,"byteLength":276},{"buffer":0,"byteOffset":10644,"byteLength":44},{"buffer":0,"byteOffset":10688,"byteLength":132},{"buffer":0,"byteOffset":10820,"byteLength":4},{"buffer":0,"byteOffset":10824,"byteLength":16},{"buffer":0,"byteOffset":10840,"byteLength":92},{"buffer":0,"byteOffset":10932,"byteLength":276},{"buffer":0,"byteOffset":11208,"byteLength":100},{"buffer":0,"byteOffset":11308,"byteLength":300}],"buffers":[{"byteLength":11608,"uri":"data:application/octet-stream;base64,"}],"accessors":[{"bufferView":0,"componentType":5126,"count":56,"max":[0.5375000238418579,0.359375,0.34062498807907104],"min":[-0.5375000238418579,0.12968750298023224,-0.328125],"type":"VEC3"},{"bufferView":1,"componentType":5126,"count":56,"max":[1,0.9989100098609924,1],"min":[-1,-1,-1],"type":"VEC3"},{"bufferView":2,"componentType":5126,"count":56,"max":[1,1],"min":[0,0.359375],"type":"VEC2"},{"bufferView":3,"componentType":5123,"count":84,"max":[55],"min":[0],"type":"SCALAR"},{"bufferView":4,"componentType":5126,"count":80,"max":[0.15625,0.4375,0.15625],"min":[-0.15625,0.0625,-0.15625],"type":"VEC3"},{"bufferView":5,"componentType":5126,"count":80,"max":[1,0.9982048273086548,1],"min":[-1,-0.9874406456947327,-1],"type":"VEC3"},{"bufferView":6,"componentType":5126,"count":80,"max":[0.8122242093086243,0.93359375],"min":[0.3984375,0.73828125],"type":"VEC2"},{"bufferView":7,"componentType":5123,"count":96,"max":[79],"min":[0],"type":"SCALAR"},{"bufferView":8,"componentType":5126,"count":12,"max":[0.13946811854839325,0.06875000149011612,0.08329562842845917],"min":[-0.14831125736236572,-0.06875000149011612,-0.06320375204086304],"type":"VEC3"},{"bufferView":9,"componentType":5126,"count":12,"max":[0.5203202962875366,0.11101236939430237,0.9871109127998352],"min":[-0.7899170517921448,-0.14050395786762238,0.5969001054763794],"type":"VEC3"},{"bufferView":10,"componentType":5126,"count":12,"max":[0.63671875,0.98046875],"min":[0.52734375,0.94921875],"type":"VEC2"},{"bufferView":11,"componentType":5123,"count":18,"max":[11],"min":[0],"type":"SCALAR"},{"bufferView":12,"componentType":5126,"count":20,"max":[0.44999998807907104,0.29374998807907104,0.28125],"min":[-0.44999998807907104,0.20624999701976776,-0.28125],"type":"VEC3"},{"bufferView":13,"componentType":5126,"count":20,"max":[0.5704789757728577,-0.590853214263916,0.5704789757728577],"min":[-0.5704789757728577,-0.836845874786377,-0.5704789757728577],"type":"VEC3"},{"bufferView":14,"componentType":5126,"count":20,"max":[0.6953125,0.734375],"min":[0.40234375,0.71484375],"type":"VEC2"},{"bufferView":15,"componentType":5123,"count":30,"max":[19],"min":[0],"type":"SCALAR"},{"bufferView":16,"componentType":5126,"count":56,"max":[0.5,0.4437499940395355,0.3125],"min":[-0.5,0.0625,-0.3125],"type":"VEC3"},{"bufferView":17,"componentType":5126,"count":56,"max":[1,1,1],"min":[-1,-1,-1],"type":"VEC3"},{"bufferView":18,"componentType":5126,"count":56,"max":[1,1],"min":[0,0],"type":"VEC2"},{"bufferView":19,"componentType":5123,"count":84,"max":[55],"min":[0],"type":"SCALAR"},{"bufferView":20,"componentType":5126,"count":6,"max":[2],"min":[0],"type":"SCALAR"},{"bufferView":21,"componentType":5126,"count":6,"max":[0,0,0.04361938685178757,1],"min":[0,0,-0.04361938685178757,0.9990482330322266],"type":"VEC4"},{"bufferView":22,"componentType":5126,"count":4,"max":[2],"min":[0],"type":"SCALAR"},{"bufferView":23,"componentType":5126,"count":4,"max":[0,0.0625,0],"min":[0,0,0],"type":"VEC3"},{"bufferView":24,"componentType":5126,"count":1,"max":[0],"min":[0],"type":"SCALAR"},{"bufferView":25,"componentType":5126,"count":1,"max":[1,1,1],"min":[1,1,1],"type":"VEC3"},{"bufferView":26,"componentType":5126,"count":4,"max":[1.9583300352096558],"min":[0],"type":"SCALAR"},{"bufferView":27,"componentType":5126,"count":4,"max":[0.02181488461792469,0,0,0.9999904632568359],"min":[0.004363309126347303,0,0,0.9997619986534119],"type":"VEC4"},{"bufferView":28,"componentType":5126,"count":1,"max":[0],"min":[0],"type":"SCALAR"},{"bufferView":29,"componentType":5126,"count":1,"max":[0,0.3765625059604645,-0.3125],"min":[0,0.3765625059604645,-0.3125],"type":"VEC3"},{"bufferView":30,"componentType":5126,"count":1,"max":[0],"min":[0],"type":"SCALAR"},{"bufferView":31,"componentType":5126,"count":1,"max":[1,1,1],"min":[1,1,1],"type":"VEC3"},{"bufferView":32,"componentType":5126,"count":1,"max":[0],"min":[0],"type":"SCALAR"},{"bufferView":33,"componentType":5126,"count":1,"max":[0,0,0.4067366421222687,0.9135454297065735],"min":[0,0,0.4067366421222687,0.9135454297065735],"type":"VEC4"},{"bufferView":34,"componentType":5126,"count":1,"max":[0],"min":[0],"type":"SCALAR"},{"bufferView":35,"componentType":5126,"count":1,"max":[0.125,0.11249999701976776,0],"min":[0.125,0.11249999701976776,0],"type":"VEC3"},{"bufferView":36,"componentType":5126,"count":1,"max":[0],"min":[0],"type":"SCALAR"},{"bufferView":37,"componentType":5126,"count":1,"max":[0.824999988079071,0.824999988079071,0.824999988079071],"min":[0.824999988079071,0.824999988079071,0.824999988079071],"type":"VEC3"},{"bufferView":38,"componentType":5126,"count":1,"max":[0],"min":[0],"type":"SCALAR"},{"bufferView":39,"componentType":5126,"count":1,"max":[0,0,0,1],"min":[0,0,0,1],"type":"VEC4"},{"bufferView":40,"componentType":5126,"count":1,"max":[0],"min":[0],"type":"SCALAR"},{"bufferView":41,"componentType":5126,"count":1,"max":[0,0.09375,0],"min":[0,0.09375,0],"type":"VEC3"},{"bufferView":42,"componentType":5126,"count":1,"max":[0],"min":[0],"type":"SCALAR"},{"bufferView":43,"componentType":5126,"count":1,"max":[1,1,1],"min":[1,1,1],"type":"VEC3"},{"bufferView":44,"componentType":5126,"count":1,"max":[0],"min":[0],"type":"SCALAR"},{"bufferView":45,"componentType":5126,"count":1,"max":[0,0,0,1],"min":[0,0,0,1],"type":"VEC4"},{"bufferView":46,"componentType":5126,"count":1,"max":[0],"min":[0],"type":"SCALAR"},{"bufferView":47,"componentType":5126,"count":1,"max":[0,0,0],"min":[0,0,0],"type":"VEC3"},{"bufferView":48,"componentType":5126,"count":1,"max":[0],"min":[0],"type":"SCALAR"},{"bufferView":49,"componentType":5126,"count":1,"max":[1,1,1],"min":[1,1,1],"type":"VEC3"},{"bufferView":50,"componentType":5126,"count":17,"max":[1],"min":[0],"type":"SCALAR"},{"bufferView":51,"componentType":5126,"count":17,"max":[0.02181488461792469,0,0,0.9999932646751404],"min":[-0.8767267465591431,0,0,0.4809887707233429],"type":"VEC4"},{"bufferView":52,"componentType":5126,"count":1,"max":[0],"min":[0],"type":"SCALAR"},{"bufferView":53,"componentType":5126,"count":1,"max":[0,0.3765625059604645,-0.3125],"min":[0,0.3765625059604645,-0.3125],"type":"VEC3"},{"bufferView":54,"componentType":5126,"count":1,"max":[0],"min":[0],"type":"SCALAR"},{"bufferView":55,"componentType":5126,"count":1,"max":[1,1,1],"min":[1,1,1],"type":"VEC3"},{"bufferView":56,"componentType":5126,"count":20,"max":[1.1666699647903442],"min":[0],"type":"SCALAR"},{"bufferView":57,"componentType":5126,"count":20,"max":[0.40639883279800415,0.19772742688655853,0.4067366421222687,0.9135454297065735],"min":[-0.08803392201662064,-0.9127867221832275,-0.406687468290329,-0.9134350419044495],"type":"VEC4"},{"bufferView":58,"componentType":5126,"count":13,"max":[0.708329975605011],"min":[0],"type":"SCALAR"},{"bufferView":59,"componentType":5126,"count":13,"max":[0.125,0.503125011920929,0],"min":[0.125,0.14374999701976776,0],"type":"VEC3"},{"bufferView":60,"componentType":5126,"count":20,"max":[1.1666699647903442],"min":[0],"type":"SCALAR"},{"bufferView":61,"componentType":5126,"count":20,"max":[1.2999999523162842,1.2999999523162842,1.2999999523162842],"min":[0.949999988079071,0.949999988079071,0.949999988079071],"type":"VEC3"},{"bufferView":62,"componentType":5126,"count":1,"max":[0],"min":[0],"type":"SCALAR"},{"bufferView":63,"componentType":5126,"count":1,"max":[0,0,0,1],"min":[0,0,0,1],"type":"VEC4"},{"bufferView":64,"componentType":5126,"count":22,"max":[1.3333300352096558],"min":[0],"type":"SCALAR"},{"bufferView":65,"componentType":5126,"count":22,"max":[0,0.38764646649360657,0],"min":[0,0.09375,0],"type":"VEC3"},{"bufferView":66,"componentType":5126,"count":10,"max":[0.5],"min":[0],"type":"SCALAR"},{"bufferView":67,"componentType":5126,"count":10,"max":[1,4.539999961853027,1],"min":[1,1,1],"type":"VEC3"},{"bufferView":68,"componentType":5126,"count":1,"max":[0],"min":[0],"type":"SCALAR"},{"bufferView":69,"componentType":5126,"count":1,"max":[0,0,0,1],"min":[0,0,0,1],"type":"VEC4"},{"bufferView":70,"componentType":5126,"count":1,"max":[0],"min":[0],"type":"SCALAR"},{"bufferView":71,"componentType":5126,"count":1,"max":[0,0,0],"min":[0,0,0],"type":"VEC3"},{"bufferView":72,"componentType":5126,"count":1,"max":[0],"min":[0],"type":"SCALAR"},{"bufferView":73,"componentType":5126,"count":1,"max":[1,1,1],"min":[1,1,1],"type":"VEC3"},{"bufferView":74,"componentType":5126,"count":1,"max":[0],"min":[0],"type":"SCALAR"},{"bufferView":75,"componentType":5126,"count":1,"max":[-0.8767267465591431,0,0,0.4809887707233429],"min":[-0.8767267465591431,0,0,0.4809887707233429],"type":"VEC4"},{"bufferView":76,"componentType":5126,"count":1,"max":[0],"min":[0],"type":"SCALAR"},{"bufferView":77,"componentType":5126,"count":1,"max":[0,0.3765625059604645,-0.3125],"min":[0,0.3765625059604645,-0.3125],"type":"VEC3"},{"bufferView":78,"componentType":5126,"count":1,"max":[0],"min":[0],"type":"SCALAR"},{"bufferView":79,"componentType":5126,"count":1,"max":[1,1,1],"min":[1,1,1],"type":"VEC3"},{"bufferView":80,"componentType":5126,"count":4,"max":[1.3333300352096558],"min":[0],"type":"SCALAR"},{"bufferView":81,"componentType":5126,"count":4,"max":[0.08803392201662064,0.8712638020515442,0.39709535241127014,0.8918907642364502],"min":[-0.3879116177558899,-0.19772742688655853,-0.39709535241127014,-0.8918907642364502],"type":"VEC4"},{"bufferView":82,"componentType":5126,"count":23,"max":[1.3333300352096558],"min":[0],"type":"SCALAR"},{"bufferView":83,"componentType":5126,"count":23,"max":[0.125,0.5942773222923279,0],"min":[0.125,0.37812501192092896,0],"type":"VEC3"},{"bufferView":84,"componentType":5126,"count":11,"max":[0.541670024394989],"min":[0],"type":"SCALAR"},{"bufferView":85,"componentType":5126,"count":11,"max":[1.2999999523162842,1.2999999523162842,1.2999999523162842],"min":[1.162500023841858,1.162500023841858,1.162500023841858],"type":"VEC3"},{"bufferView":86,"componentType":5126,"count":1,"max":[0],"min":[0],"type":"SCALAR"},{"bufferView":87,"componentType":5126,"count":1,"max":[0,0,0,1],"min":[0,0,0,1],"type":"VEC4"},{"bufferView":88,"componentType":5126,"count":23,"max":[1.375],"min":[0],"type":"SCALAR"},{"bufferView":89,"componentType":5126,"count":23,"max":[0,0.3499999940395355,0],"min":[0,0.30000001192092896,0],"type":"VEC3"},{"bufferView":90,"componentType":5126,"count":25,"max":[1.375],"min":[0],"type":"SCALAR"},{"bufferView":91,"componentType":5126,"count":25,"max":[1.059999942779541,4.539999961853027,1],"min":[1,4.539999961853027,1],"type":"VEC3"}],"materials":[{"pbrMetallicRoughness":{"metallicFactor":0,"roughnessFactor":1,"baseColorTexture":{"index":0}},"alphaMode":"MASK","alphaCutoff":0.05,"doubleSided":true}],"textures":[{"sampler":0,"source":0,"name":"medkit_texture.png"}],"samplers":[{"magFilter":9728,"minFilter":9728,"wrapS":33071,"wrapT":33071}],"images":[{"mimeType":"image/png","uri":"data:image/png;base64,"}],"meshes":[{"primitives":[{"mode":4,"attributes":{"POSITION":0,"NORMAL":1,"TEXCOORD_0":2},"indices":3,"material":0}]},{"primitives":[{"mode":4,"attributes":{"POSITION":4,"NORMAL":5,"TEXCOORD_0":6},"indices":7,"material":0}]},{"primitives":[{"mode":4,"attributes":{"POSITION":8,"NORMAL":9,"TEXCOORD_0":10},"indices":11,"material":0}]},{"primitives":[{"mode":4,"attributes":{"POSITION":12,"NORMAL":13,"TEXCOORD_0":14},"indices":15,"material":0}]},{"primitives":[{"mode":4,"attributes":{"POSITION":16,"NORMAL":17,"TEXCOORD_0":18},"indices":19,"material":0}]}],"animations":[{"name":"CaseClosed","samplers":[{"input":20,"output":21,"interpolation":"LINEAR"},{"input":22,"output":23,"interpolation":"LINEAR"},{"input":24,"output":25,"interpolation":"LINEAR"},{"input":26,"output":27,"interpolation":"LINEAR"},{"input":28,"output":29,"interpolation":"LINEAR"},{"input":30,"output":31,"interpolation":"LINEAR"},{"input":32,"output":33,"interpolation":"LINEAR"},{"input":34,"output":35,"interpolation":"LINEAR"},{"input":36,"output":37,"interpolation":"LINEAR"},{"input":38,"output":39,"interpolation":"LINEAR"},{"input":40,"output":41,"interpolation":"LINEAR"},{"input":42,"output":43,"interpolation":"LINEAR"}],"channels":[{"sampler":0,"target":{"node":8,"path":"rotation"}},{"sampler":1,"target":{"node":8,"path":"translation"}},{"sampler":2,"target":{"node":8,"path":"scale"}},{"sampler":3,"target":{"node":1,"path":"rotation"}},{"sampler":4,"target":{"node":1,"path":"translation"}},{"sampler":5,"target":{"node":1,"path":"scale"}},{"sampler":6,"target":{"node":4,"path":"rotation"}},{"sampler":7,"target":{"node":4,"path":"translation"}},{"sampler":8,"target":{"node":4,"path":"scale"}},{"sampler":9,"target":{"node":6,"path":"rotation"}},{"sampler":10,"target":{"node":6,"path":"translation"}},{"sampler":11,"target":{"node":6,"path":"scale"}}]},{"name":"OpenCase","samplers":[{"input":44,"output":45,"interpolation":"LINEAR"},{"input":46,"output":47,"interpolation":"LINEAR"},{"input":48,"output":49,"interpolation":"LINEAR"},{"input":50,"output":51,"interpolation":"LINEAR"},{"input":52,"output":53,"interpolation":"LINEAR"},{"input":54,"output":55,"interpolation":"LINEAR"},{"input":56,"output":57,"interpolation":"LINEAR"},{"input":58,"output":59,"interpolation":"LINEAR"},{"input":60,"output":61,"interpolation":"LINEAR"},{"input":62,"output":63,"interpolation":"LINEAR"},{"input":64,"output":65,"interpolation":"LINEAR"},{"input":66,"output":67,"interpolation":"LINEAR"}],"channels":[{"sampler":0,"target":{"node":8,"path":"rotation"}},{"sampler":1,"target":{"node":8,"path":"translation"}},{"sampler":2,"target":{"node":8,"path":"scale"}},{"sampler":3,"target":{"node":1,"path":"rotation"}},{"sampler":4,"target":{"node":1,"path":"translation"}},{"sampler":5,"target":{"node":1,"path":"scale"}},{"sampler":6,"target":{"node":4,"path":"rotation"}},{"sampler":7,"target":{"node":4,"path":"translation"}},{"sampler":8,"target":{"node":4,"path":"scale"}},{"sampler":9,"target":{"node":6,"path":"rotation"}},{"sampler":10,"target":{"node":6,"path":"translation"}},{"sampler":11,"target":{"node":6,"path":"scale"}}]},{"name":"CaseOpened","samplers":[{"input":68,"output":69,"interpolation":"LINEAR"},{"input":70,"output":71,"interpolation":"LINEAR"},{"input":72,"output":73,"interpolation":"LINEAR"},{"input":74,"output":75,"interpolation":"LINEAR"},{"input":76,"output":77,"interpolation":"LINEAR"},{"input":78,"output":79,"interpolation":"LINEAR"},{"input":80,"output":81,"interpolation":"LINEAR"},{"input":82,"output":83,"interpolation":"LINEAR"},{"input":84,"output":85,"interpolation":"LINEAR"},{"input":86,"output":87,"interpolation":"LINEAR"},{"input":88,"output":89,"interpolation":"LINEAR"},{"input":90,"output":91,"interpolation":"LINEAR"}],"channels":[{"sampler":0,"target":{"node":8,"path":"rotation"}},{"sampler":1,"target":{"node":8,"path":"translation"}},{"sampler":2,"target":{"node":8,"path":"scale"}},{"sampler":3,"target":{"node":1,"path":"rotation"}},{"sampler":4,"target":{"node":1,"path":"translation"}},{"sampler":5,"target":{"node":1,"path":"scale"}},{"sampler":6,"target":{"node":4,"path":"rotation"}},{"sampler":7,"target":{"node":4,"path":"translation"}},{"sampler":8,"target":{"node":4,"path":"scale"}},{"sampler":9,"target":{"node":6,"path":"rotation"}},{"sampler":10,"target":{"node":6,"path":"translation"}},{"sampler":11,"target":{"node":6,"path":"scale"}}]}]}