{"asset":{"version":"2.0","generator":"Blockbench 5.0.4 glTF exporter"},"scenes":[{"nodes":[1],"name":"blockbench_export"}],"scene":0,"nodes":[{"name":"sphere","mesh":0},{"translation":[0,0.4530609922621757,0],"scale":[1,0.915794264906691,1],"name":"Rohk the Boulder","children":[0]}],"bufferViews":[{"buffer":0,"byteOffset":0,"byteLength":5760,"target":34962,"byteStride":12},{"buffer":0,"byteOffset":5760,"byteLength":5760,"target":34962,"byteStride":12},{"buffer":0,"byteOffset":11520,"byteLength":3840,"target":34962,"byteStride":8},{"buffer":0,"byteOffset":15360,"byteLength":1344,"target":34963},{"buffer":0,"byteOffset":16704,"byteLength":16},{"buffer":0,"byteOffset":16720,"byteLength":64},{"buffer":0,"byteOffset":16784,"byteLength":4},{"buffer":0,"byteOffset":16788,"byteLength":12},{"buffer":0,"byteOffset":16800,"byteLength":156},{"buffer":0,"byteOffset":16956,"byteLength":468},{"buffer":0,"byteOffset":17424,"byteLength":4},{"buffer":0,"byteOffset":17428,"byteLength":16},{"buffer":0,"byteOffset":17444,"byteLength":68},{"buffer":0,"byteOffset":17512,"byteLength":204},{"buffer":0,"byteOffset":17716,"byteLength":68},{"buffer":0,"byteOffset":17784,"byteLength":204}],"buffers":[{"byteLength":17988,"uri":"data:application/octet-stream;base64,"}],"accessors":[{"bufferView":0,"componentType":5126,"count":480,"max":[0.5,0.5,0.5],"min":[-0.5,-0.5,-0.5],"type":"VEC3"},{"bufferView":1,"componentType":5126,"count":480,"max":[0.9807852506637573,0.9807852506637573,0.9807852506637573],"min":[-0.9807852506637573,-0.9807852506637573,-0.9807852506637573],"type":"VEC3"},{"bufferView":2,"componentType":5126,"count":480,"max":[1,1],"min":[0,0],"type":"VEC2"},{"bufferView":3,"componentType":5123,"count":672,"max":[479],"min":[0],"type":"SCALAR"},{"bufferView":4,"componentType":5126,"count":4,"max":[2],"min":[0],"type":"SCALAR"},{"bufferView":5,"componentType":5126,"count":4,"max":[0.8660253882408142,0,0,1],"min":[0,0,0,-1],"type":"VEC4"},{"bufferView":6,"componentType":5126,"count":1,"max":[0],"min":[0],"type":"SCALAR"},{"bufferView":7,"componentType":5126,"count":1,"max":[0,0.5,0],"min":[0,0.5,0],"type":"VEC3"},{"bufferView":8,"componentType":5126,"count":39,"max":[2],"min":[0],"type":"SCALAR"},{"bufferView":9,"componentType":5126,"count":39,"max":[1.0499999523162842,1.0499999523162842,1.0499999523162842],"min":[1,1,1],"type":"VEC3"},{"bufferView":10,"componentType":5126,"count":1,"max":[0],"min":[0],"type":"SCALAR"},{"bufferView":11,"componentType":5126,"count":1,"max":[0,0,0,1],"min":[0,0,0,1],"type":"VEC4"},{"bufferView":12,"componentType":5126,"count":17,"max":[1.2083333730697632],"min":[0],"type":"SCALAR"},{"bufferView":13,"componentType":5126,"count":17,"max":[0,0.625,0],"min":[0,0.375,0],"type":"VEC3"},{"bufferView":14,"componentType":5126,"count":17,"max":[1.2083333730697632],"min":[0],"type":"SCALAR"},{"bufferView":15,"componentType":5126,"count":17,"max":[1,1.399999976158142,1],"min":[1,0.7907146215438843,1],"type":"VEC3"}],"materials":[{"pbrMetallicRoughness":{"metallicFactor":0,"roughnessFactor":1,"baseColorTexture":{"index":0}},"alphaMode":"MASK","alphaCutoff":0.05,"doubleSided":true}],"textures":[{"sampler":0,"source":0,"name":"RhokTexutre.png"}],"samplers":[{"magFilter":9728,"minFilter":9728,"wrapS":33071,"wrapT":33071}],"images":[{"mimeType":"image/png","uri":"data:image/png;base64,"}],"meshes":[{"primitives":[{"mode":4,"attributes":{"POSITION":0,"NORMAL":1,"TEXCOORD_0":2},"indices":3,"material":0}]}],"animations":[{"name":"Rolling foward","samplers":[{"input":4,"output":5,"interpolation":"LINEAR"},{"input":6,"output":7,"interpolation":"LINEAR"},{"input":8,"output":9,"interpolation":"LINEAR"}],"channels":[{"sampler":0,"target":{"node":1,"path":"rotation"}},{"sampler":1,"target":{"node":1,"path":"translation"}},{"sampler":2,"target":{"node":1,"path":"scale"}}]},{"name":"Jump","samplers":[{"input":10,"output":11,"interpolation":"LINEAR"},{"input":12,"output":13,"interpolation":"LINEAR"},{"input":14,"output":15,"interpolation":"LINEAR"}],"channels":[{"sampler":0,"target":{"node":1,"path":"rotation"}},{"sampler":1,"target":{"node":1,"path":"translation"}},{"sampler":2,"target":{"node":1,"path":"scale"}}]}]}