{"asset":{"version":"2.0","generator":"Blockbench 5.0.7 glTF exporter"},"scenes":[{"nodes":[6],"name":"blockbench_export"}],"scene":0,"nodes":[{"translation":[0,-0.0625,0],"name":"box","mesh":0},{"translation":[0,0.296875,0],"name":"plane","mesh":1},{"translation":[0,-0.16250000000000003,0.3125],"name":"cuboid","mesh":2},{"rotation":[0.02181488503456112,0,0,0.9997620270799091],"translation":[0,0.3765625,-0.3125],"name":"lid","children":[2]},{"translation":[0,-0.25,0],"name":"cuboid","mesh":3},{"translation":[0,0.09375,0],"name":"light","children":[4]},{"name":"box","children":[0,1,3,5]}],"bufferViews":[{"buffer":0,"byteOffset":0,"byteLength":672,"target":34962,"byteStride":12},{"buffer":0,"byteOffset":672,"byteLength":672,"target":34962,"byteStride":12},{"buffer":0,"byteOffset":1344,"byteLength":448,"target":34962,"byteStride":8},{"buffer":0,"byteOffset":1792,"byteLength":168,"target":34963},{"buffer":0,"byteOffset":1960,"byteLength":192,"target":34962,"byteStride":12},{"buffer":0,"byteOffset":2152,"byteLength":192,"target":34962,"byteStride":12},{"buffer":0,"byteOffset":2344,"byteLength":128,"target":34962,"byteStride":8},{"buffer":0,"byteOffset":2472,"byteLength":48,"target":34963},{"buffer":0,"byteOffset":2520,"byteLength":672,"target":34962,"byteStride":12},{"buffer":0,"byteOffset":3192,"byteLength":672,"target":34962,"byteStride":12},{"buffer":0,"byteOffset":3864,"byteLength":448,"target":34962,"byteStride":8},{"buffer":0,"byteOffset":4312,"byteLength":168,"target":34963},{"buffer":0,"byteOffset":4480,"byteLength":240,"target":34962,"byteStride":12},{"buffer":0,"byteOffset":4720,"byteLength":240,"target":34962,"byteStride":12},{"buffer":0,"byteOffset":4960,"byteLength":160,"target":34962,"byteStride":8},{"buffer":0,"byteOffset":5120,"byteLength":60,"target":34963},{"buffer":0,"byteOffset":5180,"byteLength":24},{"buffer":0,"byteOffset":5204,"byteLength":96},{"buffer":0,"byteOffset":5300,"byteLength":16},{"buffer":0,"byteOffset":5316,"byteLength":48},{"buffer":0,"byteOffset":5364,"byteLength":4},{"buffer":0,"byteOffset":5368,"byteLength":12},{"buffer":0,"byteOffset":5380,"byteLength":16},{"buffer":0,"byteOffset":5396,"byteLength":64},{"buffer":0,"byteOffset":5460,"byteLength":4},{"buffer":0,"byteOffset":5464,"byteLength":12},{"buffer":0,"byteOffset":5476,"byteLength":4},{"buffer":0,"byteOffset":5480,"byteLength":12},{"buffer":0,"byteOffset":5492,"byteLength":4},{"buffer":0,"byteOffset":5496,"byteLength":16},{"buffer":0,"byteOffset":5512,"byteLength":4},{"buffer":0,"byteOffset":5516,"byteLength":12},{"buffer":0,"byteOffset":5528,"byteLength":4},{"buffer":0,"byteOffset":5532,"byteLength":12},{"buffer":0,"byteOffset":5544,"byteLength":4},{"buffer":0,"byteOffset":5548,"byteLength":16},{"buffer":0,"byteOffset":5564,"byteLength":4},{"buffer":0,"byteOffset":5568,"byteLength":12},{"buffer":0,"byteOffset":5580,"byteLength":4},{"buffer":0,"byteOffset":5584,"byteLength":12},{"buffer":0,"byteOffset":5596,"byteLength":68},{"buffer":0,"byteOffset":5664,"byteLength":272},{"buffer":0,"byteOffset":5936,"byteLength":4},{"buffer":0,"byteOffset":5940,"byteLength":12},{"buffer":0,"byteOffset":5952,"byteLength":4},{"buffer":0,"byteOffset":5956,"byteLength":12},{"buffer":0,"byteOffset":5968,"byteLength":4},{"buffer":0,"byteOffset":5972,"byteLength":16},{"buffer":0,"byteOffset":5988,"byteLength":88},{"buffer":0,"byteOffset":6076,"byteLength":264},{"buffer":0,"byteOffset":6340,"byteLength":40},{"buffer":0,"byteOffset":6380,"byteLength":120},{"buffer":0,"byteOffset":6500,"byteLength":4},{"buffer":0,"byteOffset":6504,"byteLength":16},{"buffer":0,"byteOffset":6520,"byteLength":4},{"buffer":0,"byteOffset":6524,"byteLength":12},{"buffer":0,"byteOffset":6536,"byteLength":4},{"buffer":0,"byteOffset":6540,"byteLength":12},{"buffer":0,"byteOffset":6552,"byteLength":4},{"buffer":0,"byteOffset":6556,"byteLength":16},{"buffer":0,"byteOffset":6572,"byteLength":4},{"buffer":0,"byteOffset":6576,"byteLength":12},{"buffer":0,"byteOffset":6588,"byteLength":4},{"buffer":0,"byteOffset":6592,"byteLength":12},{"buffer":0,"byteOffset":6604,"byteLength":4},{"buffer":0,"byteOffset":6608,"byteLength":16},{"buffer":0,"byteOffset":6624,"byteLength":92},{"buffer":0,"byteOffset":6716,"byteLength":276},{"buffer":0,"byteOffset":6992,"byteLength":100},{"buffer":0,"byteOffset":7092,"byteLength":300}],"buffers":[{"byteLength":7392,"uri":"data:application/octet-stream;base64,"}],"accessors":[{"bufferView":0,"componentType":5126,"count":56,"max":[0.5,0.4437499940395355,0.3125],"min":[-0.5,0.0625,-0.3125],"type":"VEC3"},{"bufferView":1,"componentType":5126,"count":56,"max":[1,1,1],"min":[-1,-1,-1],"type":"VEC3"},{"bufferView":2,"componentType":5126,"count":56,"max":[1,1],"min":[0,0],"type":"VEC2"},{"bufferView":3,"componentType":5123,"count":84,"max":[55],"min":[0],"type":"SCALAR"},{"bufferView":4,"componentType":5126,"count":16,"max":[0.48124998807907104,0.109375,0.3125],"min":[-0.48124998807907104,0,-0.3125],"type":"VEC3"},{"bufferView":5,"componentType":5126,"count":16,"max":[0.20974180102348328,1,0.33035042881965637],"min":[-0.20974180102348328,0.9228639602661133,-0.33035042881965637],"type":"VEC3"},{"bufferView":6,"componentType":5126,"count":16,"max":[0.80078125,0.98828125],"min":[0.40625,0.7421875],"type":"VEC2"},{"bufferView":7,"componentType":5123,"count":24,"max":[15],"min":[0],"type":"SCALAR"},{"bufferView":8,"componentType":5126,"count":56,"max":[0.5375000238418579,0.359375,0.34062498807907104],"min":[-0.5375000238418579,0.12968750298023224,-0.328125],"type":"VEC3"},{"bufferView":9,"componentType":5126,"count":56,"max":[1,0.9989100098609924,1],"min":[-1,-1,-1],"type":"VEC3"},{"bufferView":10,"componentType":5126,"count":56,"max":[1,1],"min":[0.0078125,0.359375],"type":"VEC2"},{"bufferView":11,"componentType":5123,"count":84,"max":[55],"min":[0],"type":"SCALAR"},{"bufferView":12,"componentType":5126,"count":20,"max":[0.44999998807907104,0.29374998807907104,0.28125],"min":[-0.44999998807907104,0.20624999701976776,-0.28125],"type":"VEC3"},{"bufferView":13,"componentType":5126,"count":20,"max":[0.5704789757728577,-0.590853214263916,0.5704789757728577],"min":[-0.5704789757728577,-0.836845874786377,-0.5704789757728577],"type":"VEC3"},{"bufferView":14,"componentType":5126,"count":20,"max":[0.6953125,0.734375],"min":[0.40234375,0.71484375],"type":"VEC2"},{"bufferView":15,"componentType":5123,"count":30,"max":[19],"min":[0],"type":"SCALAR"},{"bufferView":16,"componentType":5126,"count":6,"max":[2],"min":[0],"type":"SCALAR"},{"bufferView":17,"componentType":5126,"count":6,"max":[0,0,0.04361938685178757,1],"min":[0,0,-0.04361938685178757,0.9990482330322266],"type":"VEC4"},{"bufferView":18,"componentType":5126,"count":4,"max":[2],"min":[0],"type":"SCALAR"},{"bufferView":19,"componentType":5126,"count":4,"max":[0,0.0625,0],"min":[0,0,0],"type":"VEC3"},{"bufferView":20,"componentType":5126,"count":1,"max":[0],"min":[0],"type":"SCALAR"},{"bufferView":21,"componentType":5126,"count":1,"max":[1,1,1],"min":[1,1,1],"type":"VEC3"},{"bufferView":22,"componentType":5126,"count":4,"max":[1.9583300352096558],"min":[0],"type":"SCALAR"},{"bufferView":23,"componentType":5126,"count":4,"max":[0.02181488461792469,0,0,0.9999904632568359],"min":[0.004363309126347303,0,0,0.9997619986534119],"type":"VEC4"},{"bufferView":24,"componentType":5126,"count":1,"max":[0],"min":[0],"type":"SCALAR"},{"bufferView":25,"componentType":5126,"count":1,"max":[0,0.3765625059604645,-0.3125],"min":[0,0.3765625059604645,-0.3125],"type":"VEC3"},{"bufferView":26,"componentType":5126,"count":1,"max":[0],"min":[0],"type":"SCALAR"},{"bufferView":27,"componentType":5126,"count":1,"max":[1,1,1],"min":[1,1,1],"type":"VEC3"},{"bufferView":28,"componentType":5126,"count":1,"max":[0],"min":[0],"type":"SCALAR"},{"bufferView":29,"componentType":5126,"count":1,"max":[0,0,0,1],"min":[0,0,0,1],"type":"VEC4"},{"bufferView":30,"componentType":5126,"count":1,"max":[0],"min":[0],"type":"SCALAR"},{"bufferView":31,"componentType":5126,"count":1,"max":[0,0.09375,0],"min":[0,0.09375,0],"type":"VEC3"},{"bufferView":32,"componentType":5126,"count":1,"max":[0],"min":[0],"type":"SCALAR"},{"bufferView":33,"componentType":5126,"count":1,"max":[1,1,1],"min":[1,1,1],"type":"VEC3"},{"bufferView":34,"componentType":5126,"count":1,"max":[0],"min":[0],"type":"SCALAR"},{"bufferView":35,"componentType":5126,"count":1,"max":[0,0,0,1],"min":[0,0,0,1],"type":"VEC4"},{"bufferView":36,"componentType":5126,"count":1,"max":[0],"min":[0],"type":"SCALAR"},{"bufferView":37,"componentType":5126,"count":1,"max":[0,0,0],"min":[0,0,0],"type":"VEC3"},{"bufferView":38,"componentType":5126,"count":1,"max":[0],"min":[0],"type":"SCALAR"},{"bufferView":39,"componentType":5126,"count":1,"max":[1,1,1],"min":[1,1,1],"type":"VEC3"},{"bufferView":40,"componentType":5126,"count":17,"max":[1],"min":[0],"type":"SCALAR"},{"bufferView":41,"componentType":5126,"count":17,"max":[0.02181488461792469,0,0,0.9999932646751404],"min":[-0.8767267465591431,0,0,0.4809887707233429],"type":"VEC4"},{"bufferView":42,"componentType":5126,"count":1,"max":[0],"min":[0],"type":"SCALAR"},{"bufferView":43,"componentType":5126,"count":1,"max":[0,0.3765625059604645,-0.3125],"min":[0,0.3765625059604645,-0.3125],"type":"VEC3"},{"bufferView":44,"componentType":5126,"count":1,"max":[0],"min":[0],"type":"SCALAR"},{"bufferView":45,"componentType":5126,"count":1,"max":[1,1,1],"min":[1,1,1],"type":"VEC3"},{"bufferView":46,"componentType":5126,"count":1,"max":[0],"min":[0],"type":"SCALAR"},{"bufferView":47,"componentType":5126,"count":1,"max":[0,0,0,1],"min":[0,0,0,1],"type":"VEC4"},{"bufferView":48,"componentType":5126,"count":22,"max":[1.3333300352096558],"min":[0],"type":"SCALAR"},{"bufferView":49,"componentType":5126,"count":22,"max":[0,0.38764646649360657,0],"min":[0,0.09375,0],"type":"VEC3"},{"bufferView":50,"componentType":5126,"count":10,"max":[0.5],"min":[0],"type":"SCALAR"},{"bufferView":51,"componentType":5126,"count":10,"max":[1,4.539999961853027,1],"min":[1,1,1],"type":"VEC3"},{"bufferView":52,"componentType":5126,"count":1,"max":[0],"min":[0],"type":"SCALAR"},{"bufferView":53,"componentType":5126,"count":1,"max":[0,0,0,1],"min":[0,0,0,1],"type":"VEC4"},{"bufferView":54,"componentType":5126,"count":1,"max":[0],"min":[0],"type":"SCALAR"},{"bufferView":55,"componentType":5126,"count":1,"max":[0,0,0],"min":[0,0,0],"type":"VEC3"},{"bufferView":56,"componentType":5126,"count":1,"max":[0],"min":[0],"type":"SCALAR"},{"bufferView":57,"componentType":5126,"count":1,"max":[1,1,1],"min":[1,1,1],"type":"VEC3"},{"bufferView":58,"componentType":5126,"count":1,"max":[0],"min":[0],"type":"SCALAR"},{"bufferView":59,"componentType":5126,"count":1,"max":[-0.8767267465591431,0,0,0.4809887707233429],"min":[-0.8767267465591431,0,0,0.4809887707233429],"type":"VEC4"},{"bufferView":60,"componentType":5126,"count":1,"max":[0],"min":[0],"type":"SCALAR"},{"bufferView":61,"componentType":5126,"count":1,"max":[0,0.3765625059604645,-0.3125],"min":[0,0.3765625059604645,-0.3125],"type":"VEC3"},{"bufferView":62,"componentType":5126,"count":1,"max":[0],"min":[0],"type":"SCALAR"},{"bufferView":63,"componentType":5126,"count":1,"max":[1,1,1],"min":[1,1,1],"type":"VEC3"},{"bufferView":64,"componentType":5126,"count":1,"max":[0],"min":[0],"type":"SCALAR"},{"bufferView":65,"componentType":5126,"count":1,"max":[0,0,0,1],"min":[0,0,0,1],"type":"VEC4"},{"bufferView":66,"componentType":5126,"count":23,"max":[1.375],"min":[0],"type":"SCALAR"},{"bufferView":67,"componentType":5126,"count":23,"max":[0,0.3499999940395355,0],"min":[0,0.30000001192092896,0],"type":"VEC3"},{"bufferView":68,"componentType":5126,"count":25,"max":[1.375],"min":[0],"type":"SCALAR"},{"bufferView":69,"componentType":5126,"count":25,"max":[1.059999942779541,4.539999961853027,1],"min":[1,4.539999961853027,1],"type":"VEC3"}],"materials":[{"pbrMetallicRoughness":{"metallicFactor":0,"roughnessFactor":1,"baseColorTexture":{"index":0}},"alphaMode":"MASK","alphaCutoff":0.05,"doubleSided":true}],"textures":[{"sampler":0,"source":0,"name":"medkit_texture.png"}],"samplers":[{"magFilter":9728,"minFilter":9728,"wrapS":33071,"wrapT":33071}],"images":[{"mimeType":"image/png","uri":"data:image/png;base64,"}],"meshes":[{"primitives":[{"mode":4,"attributes":{"POSITION":0,"NORMAL":1,"TEXCOORD_0":2},"indices":3,"material":0}]},{"primitives":[{"mode":4,"attributes":{"POSITION":4,"NORMAL":5,"TEXCOORD_0":6},"indices":7,"material":0}]},{"primitives":[{"mode":4,"attributes":{"POSITION":8,"NORMAL":9,"TEXCOORD_0":10},"indices":11,"material":0}]},{"primitives":[{"mode":4,"attributes":{"POSITION":12,"NORMAL":13,"TEXCOORD_0":14},"indices":15,"material":0}]}],"animations":[{"name":"CaseClosed","samplers":[{"input":16,"output":17,"interpolation":"LINEAR"},{"input":18,"output":19,"interpolation":"LINEAR"},{"input":20,"output":21,"interpolation":"LINEAR"},{"input":22,"output":23,"interpolation":"LINEAR"},{"input":24,"output":25,"interpolation":"LINEAR"},{"input":26,"output":27,"interpolation":"LINEAR"},{"input":28,"output":29,"interpolation":"LINEAR"},{"input":30,"output":31,"interpolation":"LINEAR"},{"input":32,"output":33,"interpolation":"LINEAR"}],"channels":[{"sampler":0,"target":{"node":6,"path":"rotation"}},{"sampler":1,"target":{"node":6,"path":"translation"}},{"sampler":2,"target":{"node":6,"path":"scale"}},{"sampler":3,"target":{"node":3,"path":"rotation"}},{"sampler":4,"target":{"node":3,"path":"translation"}},{"sampler":5,"target":{"node":3,"path":"scale"}},{"sampler":6,"target":{"node":5,"path":"rotation"}},{"sampler":7,"target":{"node":5,"path":"translation"}},{"sampler":8,"target":{"node":5,"path":"scale"}}]},{"name":"OpenCase","samplers":[{"input":34,"output":35,"interpolation":"LINEAR"},{"input":36,"output":37,"interpolation":"LINEAR"},{"input":38,"output":39,"interpolation":"LINEAR"},{"input":40,"output":41,"interpolation":"LINEAR"},{"input":42,"output":43,"interpolation":"LINEAR"},{"input":44,"output":45,"interpolation":"LINEAR"},{"input":46,"output":47,"interpolation":"LINEAR"},{"input":48,"output":49,"interpolation":"LINEAR"},{"input":50,"output":51,"interpolation":"LINEAR"}],"channels":[{"sampler":0,"target":{"node":6,"path":"rotation"}},{"sampler":1,"target":{"node":6,"path":"translation"}},{"sampler":2,"target":{"node":6,"path":"scale"}},{"sampler":3,"target":{"node":3,"path":"rotation"}},{"sampler":4,"target":{"node":3,"path":"translation"}},{"sampler":5,"target":{"node":3,"path":"scale"}},{"sampler":6,"target":{"node":5,"path":"rotation"}},{"sampler":7,"target":{"node":5,"path":"translation"}},{"sampler":8,"target":{"node":5,"path":"scale"}}]},{"name":"CaseOpened","samplers":[{"input":52,"output":53,"interpolation":"LINEAR"},{"input":54,"output":55,"interpolation":"LINEAR"},{"input":56,"output":57,"interpolation":"LINEAR"},{"input":58,"output":59,"interpolation":"LINEAR"},{"input":60,"output":61,"interpolation":"LINEAR"},{"input":62,"output":63,"interpolation":"LINEAR"},{"input":64,"output":65,"interpolation":"LINEAR"},{"input":66,"output":67,"interpolation":"LINEAR"},{"input":68,"output":69,"interpolation":"LINEAR"}],"channels":[{"sampler":0,"target":{"node":6,"path":"rotation"}},{"sampler":1,"target":{"node":6,"path":"translation"}},{"sampler":2,"target":{"node":6,"path":"scale"}},{"sampler":3,"target":{"node":3,"path":"rotation"}},{"sampler":4,"target":{"node":3,"path":"translation"}},{"sampler":5,"target":{"node":3,"path":"scale"}},{"sampler":6,"target":{"node":5,"path":"rotation"}},{"sampler":7,"target":{"node":5,"path":"translation"}},{"sampler":8,"target":{"node":5,"path":"scale"}}]}]}