{"asset":{"version":"2.0","generator":"Blockbench 4.12.6 glTF exporter"},"scenes":[{"nodes":[2],"name":"blockbench_export"}],"scene":0,"nodes":[{"name":"cuboid","mesh":0},{"name":"cuboid"},{"children":[0,1]}],"bufferViews":[{"buffer":0,"byteOffset":0,"byteLength":240,"target":34962,"byteStride":12},{"buffer":0,"byteOffset":240,"byteLength":240,"target":34962,"byteStride":12},{"buffer":0,"byteOffset":480,"byteLength":160,"target":34962,"byteStride":8},{"buffer":0,"byteOffset":640,"byteLength":24,"target":34963},{"buffer":0,"byteOffset":664,"byteLength":12,"target":34963},{"buffer":0,"byteOffset":676,"byteLength":24,"target":34963}],"buffers":[{"byteLength":700,"uri":"data:application/octet-stream;base64,"}],"accessors":[{"bufferView":0,"componentType":5126,"count":20,"max":[0.5,1.75,0.5],"min":[-0.5,-1.3125,-0.5],"type":"VEC3"},{"bufferView":1,"componentType":5126,"count":20,"max":[1,1,1],"min":[-1,0,-1],"type":"VEC3"},{"bufferView":2,"componentType":5126,"count":20,"max":[1.0087890625,2.6328125],"min":[-0.0038299560546875,0],"type":"VEC2"},{"bufferView":3,"componentType":5123,"count":12,"max":[7],"min":[0],"type":"SCALAR"},{"bufferView":4,"componentType":5123,"count":6,"max":[11],"min":[8],"type":"SCALAR"},{"bufferView":5,"componentType":5123,"count":12,"max":[19],"min":[12],"type":"SCALAR"}],"materials":[{"pbrMetallicRoughness":{"metallicFactor":0,"roughnessFactor":1,"baseColorTexture":{"index":0}},"alphaMode":"MASK","alphaCutoff":0.05,"doubleSided":true},{"pbrMetallicRoughness":{"metallicFactor":0,"roughnessFactor":1,"baseColorTexture":{"index":1}},"alphaMode":"MASK","alphaCutoff":0.05,"doubleSided":true}],"textures":[{"sampler":0,"source":0},{"sampler":1,"source":1}],"samplers":[{"magFilter":9728,"minFilter":9728,"wrapS":33071,"wrapT":33071},{"magFilter":9728,"minFilter":9728,"wrapS":33071,"wrapT":33071}],"images":[{"mimeType":"image/png","uri":"data:image/png;base64,"},{"mimeType":"image/png","uri":"data:image/png;base64,"}],"meshes":[{"primitives":[{"mode":4,"attributes":{"POSITION":0,"NORMAL":1,"TEXCOORD_0":2},"indices":3,"material":0},{"mode":4,"attributes":{"POSITION":0,"NORMAL":1,"TEXCOORD_0":2},"indices":4,"material":1},{"mode":4,"attributes":{"POSITION":0,"NORMAL":1,"TEXCOORD_0":2},"indices":5,"material":0}]}]}